Normalized EMG Linear Envelopes
nRows=248
nColumns=4

endheader
time	 med_gas_r	  soleus_r	 tib_ant_r	
3.32661	  0.011225	  0.012063	  0.005435	
3.35988	  0.010876	  0.012382	  0.005542	
3.39315	  0.010471	  0.012543	  0.005611	
3.42641	  0.010099	  0.012491	  0.005633	
3.45968	  0.009796	  0.012276	  0.005599	
3.49294	  0.009563	  0.012013	  0.005502	
3.52621	  0.009431	  0.011815	  0.005366	
3.55948	  0.009408	  0.011730	  0.005235	
3.59274	  0.009487	  0.011745	  0.005130	
3.62601	  0.009677	  0.011817	  0.005051	
3.65927	  0.009955	  0.011870	  0.004981	
3.69254	  0.010264	  0.011826	  0.004907	
3.72581	  0.010547	  0.011679	  0.004831	
3.75907	  0.010833	  0.011428	  0.004768	
3.79234	  0.011151	  0.011111	  0.004712	
3.8256	  0.011488	  0.010797	  0.004654	
3.85887	  0.011798	  0.010519	  0.004608	
3.89214	  0.011966	  0.010275	  0.004576	
3.9254	  0.011886	  0.010072	  0.004562	
3.95867	  0.011547	  0.009924	  0.004575	
3.99194	  0.011046	  0.009853	  0.004628	
4.0252	  0.010508	  0.009846	  0.004723	
4.05847	  0.010031	  0.009881	  0.004846	
4.09173	  0.009694	  0.009944	  0.004989	
4.125	  0.009528	  0.010021	  0.005139	
4.15827	  0.009513	  0.010097	  0.005271	
4.19153	  0.009578	  0.010167	  0.005356	
4.2248	  0.009680	  0.010211	  0.005373	
4.25806	  0.009826	  0.010214	  0.005334	
4.29133	  0.010013	  0.010170	  0.005287	
4.3246	  0.010210	  0.010109	  0.005270	
4.35786	  0.010397	  0.010101	  0.005294	
4.39113	  0.010604	  0.010214	  0.005366	
4.4244	  0.010838	  0.010488	  0.005483	
4.45766	  0.011080	  0.010927	  0.005646	
4.49093	  0.011304	  0.011504	  0.005840	
4.52419	  0.011492	  0.012168	  0.006040	
4.55746	  0.011629	  0.012876	  0.006224	
4.59073	  0.011685	  0.013524	  0.006387	
4.62399	  0.011657	  0.013960	  0.006491	
4.65726	  0.011577	  0.014054	  0.006459	
4.69052	  0.011444	  0.013694	  0.006225	
4.72379	  0.011252	  0.012969	  0.005831	
4.75706	  0.011023	  0.012090	  0.005367	
4.79032	  0.010775	  0.011237	  0.004902	
4.82359	  0.010549	  0.010484	  0.004464	
4.85685	  0.010409	  0.009848	  0.004080	
4.89012	  0.010369	  0.009377	  0.003781	
4.92339	  0.010398	  0.009107	  0.003615	
4.95665	  0.010427	  0.009054	  0.003688	
4.98992	  0.010416	  0.009201	  0.004147	
5.02319	  0.010367	  0.009518	  0.005186	
5.05645	  0.010305	  0.010058	  0.007109	
5.08972	  0.010278	  0.011018	  0.010417	
5.12298	  0.010329	  0.012637	  0.015779	
5.15625	  0.010517	  0.015165	  0.023922	
5.18952	  0.010892	  0.018839	  0.035387	
5.22278	  0.011474	  0.023777	  0.050284	
5.25605	  0.012266	  0.029860	  0.068115	
5.28931	  0.013269	  0.036632	  0.087891	
5.32258	  0.014408	  0.043304	  0.107915	
5.35585	  0.015547	  0.048832	  0.125986	
5.38911	  0.016659	  0.052671	  0.140940	
5.42238	  0.017739	  0.055244	  0.152847	
5.45565	  0.018713	  0.056994	  0.162092	
5.48891	  0.019516	  0.058087	  0.169273	
5.52218	  0.020224	  0.058640	  0.175243	
5.55544	  0.021016	  0.059059	  0.181682	
5.58871	  0.022081	  0.060178	  0.190822	
5.62198	  0.023570	  0.062701	  0.204649	
5.65524	  0.025558	  0.066939	  0.224150	
5.68851	  0.028132	  0.072915	  0.249511	
5.72177	  0.031363	  0.080323	  0.280576	
5.75504	  0.035122	  0.088498	  0.316780	
5.78831	  0.039116	  0.096817	  0.355622	
5.82157	  0.042955	  0.104620	  0.392762	
5.85484	  0.046245	  0.111364	  0.425283	
5.8881	  0.048898	  0.117046	  0.452945	
5.92137	  0.050840	  0.121604	  0.474222	
5.95464	  0.051794	  0.124585	  0.488912	
5.9879	  0.051901	  0.126368	  0.497689	
6.02117	  0.051750	  0.128351	  0.500380	
6.05444	  0.051845	  0.132091	  0.499372	
6.0877	  0.052615	  0.138488	  0.497854	
6.12097	  0.054276	  0.148007	  0.497686	
6.15423	  0.056604	  0.160170	  0.499796	
6.1875	  0.059204	  0.173611	  0.502852	
6.22077	  0.061623	  0.186520	  0.504101	
6.25403	  0.063539	  0.196880	  0.501590	
6.2873	  0.064876	  0.202875	  0.496994	
6.32056	  0.065802	  0.204689	  0.492343	
6.35383	  0.066441	  0.203607	  0.488406	
6.3871	  0.066906	  0.200762	  0.485925	
6.42036	  0.067595	  0.198417	  0.486142	
6.45363	  0.068824	  0.198806	  0.489412	
6.4869	  0.070770	  0.202678	  0.497154	
6.52016	  0.073638	  0.209819	  0.510077	
6.55343	  0.077254	  0.218924	  0.528263	
6.58669	  0.080944	  0.227999	  0.550660	
6.61996	  0.083830	  0.234187	  0.574984	
6.65323	  0.085456	  0.236572	  0.597278	
6.68649	  0.086000	  0.236527	  0.611898	
6.71976	  0.085966	  0.235786	  0.617513	
6.75302	  0.085726	  0.236130	  0.617166	
6.78629	  0.085620	  0.239125	  0.614213	
6.81956	  0.085642	  0.244522	  0.609260	
6.85282	  0.085337	  0.250309	  0.600634	
6.88609	  0.084416	  0.255425	  0.589695	
6.91935	  0.082769	  0.259737	  0.577849	
6.95262	  0.080383	  0.262685	  0.565472	
6.98589	  0.077514	  0.264037	  0.553822	
7.01915	  0.074616	  0.263133	  0.547289	
7.05242	  0.071921	  0.259779	  0.547888	
7.08569	  0.069776	  0.255503	  0.554903	
7.11895	  0.068464	  0.251765	  0.565160	
7.15222	  0.068127	  0.249237	  0.573333	
7.18548	  0.068593	  0.247348	  0.574557	
7.21875	  0.069400	  0.244987	  0.565853	
7.25202	  0.070173	  0.241028	  0.549841	
7.28528	  0.070853	  0.235574	  0.530758	
7.31855	  0.071572	  0.230155	  0.514474	
7.35181	  0.072423	  0.226866	  0.505572	
7.38508	  0.073348	  0.226976	  0.505469	
7.41835	  0.074338	  0.230616	  0.513306	
7.45161	  0.075254	  0.237010	  0.526412	
7.48488	  0.075566	  0.243985	  0.538896	
7.51815	  0.075296	  0.250477	  0.548750	
7.55141	  0.074773	  0.256772	  0.555518	
7.58468	  0.074131	  0.262594	  0.559947	
7.61794	  0.073498	  0.267252	  0.564153	
7.65121	  0.073270	  0.271423	  0.572589	
7.68448	  0.074274	  0.277214	  0.588859	
7.71774	  0.077025	  0.286508	  0.613368	
7.75101	  0.081498	  0.299838	  0.644572	
7.78427	  0.087256	  0.316413	  0.677793	
7.81754	  0.093046	  0.331969	  0.706573	
7.85081	  0.097098	  0.339052	  0.723832	
7.88407	  0.098513	  0.333374	  0.726915	
7.91734	  0.097712	  0.316747	  0.721955	
7.9506	  0.095575	  0.295018	  0.715473	
7.98387	  0.093373	  0.275614	  0.710059	
8.01714	  0.092009	  0.263602	  0.704931	
8.0504	  0.091676	  0.260988	  0.700425	
8.08367	  0.092252	  0.267447	  0.698469	
8.11694	  0.093630	  0.281287	  0.701138	
8.1502	  0.095335	  0.299066	  0.707946	
8.18347	  0.096973	  0.317606	  0.714575	
8.21673	  0.098570	  0.334643	  0.718758	
8.25	  0.099761	  0.346668	  0.719090	
8.28327	  0.099598	  0.349689	  0.712745	
8.31653	  0.097603	  0.343579	  0.699434	
8.3498	  0.094118	  0.331296	  0.682789	
8.38306	  0.089571	  0.317142	  0.665352	
8.41633	  0.084984	  0.305743	  0.649174	
8.4496	  0.081540	  0.298876	  0.636088	
8.48286	  0.080063	  0.296562	  0.629626	
8.51613	  0.080700	  0.298211	  0.631391	
8.5494	  0.082893	  0.303272	  0.638528	
8.58266	  0.086477	  0.311817	  0.647234	
8.61593	  0.090950	  0.321967	  0.658215	
8.64919	  0.095609	  0.330997	  0.673062	
8.68246	  0.100059	  0.338978	  0.691487	
8.71573	  0.104215	  0.346392	  0.712044	
8.74899	  0.107880	  0.351821	  0.731604	
8.78226	  0.110899	  0.354275	  0.749582	
8.81552	  0.113797	  0.355885	  0.768621	
8.84879	  0.117241	  0.358645	  0.787810	
8.88206	  0.121178	  0.364884	  0.804955	
8.91532	  0.124610	  0.375065	  0.816744	
8.94859	  0.126107	  0.385960	  0.818504	
8.98185	  0.124753	  0.392859	  0.805405	
9.01512	  0.120895	  0.394210	  0.779608	
9.04839	  0.116303	  0.392899	  0.749995	
9.08165	  0.112961	  0.392050	  0.725305	
9.11492	  0.111873	  0.393627	  0.707231	
9.14819	  0.112561	  0.395788	  0.691851	
9.18145	  0.113450	  0.394119	  0.678043	
9.21472	  0.113539	  0.385301	  0.668196	
9.24798	  0.112586	  0.370721	  0.664933	
9.28125	  0.110430	  0.353610	  0.668150	
9.31452	  0.107664	  0.338904	  0.677271	
9.34778	  0.104831	  0.330919	  0.688381	
9.38105	  0.102410	  0.330019	  0.698797	
9.41431	  0.101004	  0.333821	  0.709592	
9.44758	  0.100554	  0.338531	  0.720677	
9.48085	  0.100798	  0.341717	  0.734121	
9.51411	  0.101367	  0.343375	  0.749928	
9.54738	  0.101612	  0.342357	  0.762593	
9.58065	  0.100941	  0.336724	  0.766798	
9.61391	  0.099771	  0.327333	  0.762444	
9.64718	  0.098453	  0.316968	  0.749568	
9.68044	  0.097286	  0.307796	  0.728549	
9.71371	  0.096486	  0.300467	  0.703479	
9.74698	  0.096294	  0.295167	  0.680548	
9.78024	  0.096530	  0.292011	  0.663041	
9.81351	  0.097008	  0.291426	  0.652184	
9.84677	  0.097327	  0.292495	  0.647978	
9.88004	  0.097550	  0.294815	  0.648931	
9.91331	  0.097987	  0.298384	  0.654495	
9.94657	  0.098489	  0.301785	  0.662419	
9.97984	  0.098493	  0.303564	  0.670648	
10.0131	  0.097808	  0.302726	  0.680077	
10.0464	  0.096865	  0.300770	  0.693232	
10.0796	  0.096165	  0.299971	  0.710996	
10.1129	  0.095889	  0.302531	  0.733101	
10.1462	  0.096268	  0.310724	  0.759404	
10.1794	  0.097608	  0.325372	  0.787622	
10.2127	  0.100029	  0.345518	  0.813490	
10.246	  0.103036	  0.368307	  0.833957	
10.2792	  0.105823	  0.389738	  0.842544	
10.3125	  0.107897	  0.405260	  0.830600	
10.3458	  0.108236	  0.409459	  0.795811	
10.379	  0.105713	  0.397781	  0.741085	
10.4123	  0.099675	  0.369599	  0.673937	
10.4456	  0.090020	  0.327407	  0.604061	
10.4788	  0.078086	  0.277515	  0.539188	
10.5121	  0.065986	  0.228402	  0.481925	
10.5454	  0.055046	  0.185381	  0.431570	
10.5786	  0.045926	  0.150949	  0.387547	
10.6119	  0.038781	  0.125469	  0.348350	
10.6452	  0.033260	  0.106974	  0.311348	
10.6784	  0.028950	  0.093429	  0.274075	
10.7117	  0.025668	  0.083533	  0.235551	
10.745	  0.023431	  0.076778	  0.199268	
10.7782	  0.021978	  0.072233	  0.166386	
10.8115	  0.020846	  0.068167	  0.136230	
10.8448	  0.019665	  0.063070	  0.110129	
10.878	  0.018274	  0.056470	  0.089592	
10.9113	  0.016923	  0.049659	  0.075517	
10.9446	  0.015832	  0.043966	  0.067591	
10.9778	  0.015038	  0.039726	  0.064022	
11.0111	  0.014514	  0.036469	  0.062215	
11.0444	  0.014202	  0.033336	  0.060159	
11.0776	  0.013987	  0.029791	  0.057097	
11.1109	  0.013783	  0.026173	  0.053907	
11.1442	  0.013513	  0.023052	  0.051412	
11.1774	  0.013133	  0.020661	  0.049679	
11.2107	  0.012751	  0.019075	  0.048521	
11.244	  0.012490	  0.018178	  0.047861	
11.2772	  0.012413	  0.017742	  0.047569	
11.3105	  0.012552	  0.017649	  0.047367	
11.3437	  0.012920	  0.017719	  0.046721	
11.377	  0.013484	  0.017780	  0.045599	
11.4103	  0.014157	  0.017890	  0.044265	
11.4435	  0.014821	  0.018110	  0.042926	
11.4768	  0.015314	  0.018421	  0.041775	
11.5101	  0.015492	  0.018790	  0.041152	
11.5433	  0.015314	  0.019228	  0.041191	
